<?xml version="1.0" encoding="UTF-8" standalone="no"?>
<svg
   width="48"
   height="48"
   id="svg11300"
   version="1.0"
   style="display:inline;enable-background:new"
   viewBox="0 0 48 48"
   sodipodi:docname="org.xfce.terminal-settings.svg"
   inkscape:version="1.2.2 (b0a8486541, 2022-12-01)"
   inkscape:export-filename="org.xfce.terminal-settings.png"
   inkscape:export-xdpi="96"
   inkscape:export-ydpi="96"
   xmlns:inkscape="http://www.inkscape.org/namespaces/inkscape"
   xmlns:sodipodi="http://sodipodi.sourceforge.net/DTD/sodipodi-0.dtd"
   xmlns:xlink="http://www.w3.org/1999/xlink"
   xmlns="http://www.w3.org/2000/svg"
   xmlns:svg="http://www.w3.org/2000/svg"
   xmlns:rdf="http://www.w3.org/1999/02/22-rdf-syntax-ns#"
   xmlns:cc="http://creativecommons.org/ns#"
   xmlns:dc="http://purl.org/dc/elements/1.1/">
  <sodipodi:namedview
     pagecolor="#ffffff"
     bordercolor="#666666"
     borderopacity="1"
     objecttolerance="10"
     gridtolerance="10"
     guidetolerance="10"
     inkscape:pageopacity="0"
     inkscape:pageshadow="2"
     inkscape:window-width="1326"
     inkscape:window-height="911"
     id="namedview44"
     showgrid="true"
     inkscape:zoom="12.105668"
     inkscape:cx="28.870774"
     inkscape:cy="34.198856"
     inkscape:window-x="443"
     inkscape:window-y="41"
     inkscape:window-maximized="0"
     inkscape:current-layer="svg11300"
     inkscape:lockguides="false"
     showguides="false"
     inkscape:guide-bbox="true"
     inkscape:showpageshadow="2"
     inkscape:pagecheckerboard="0"
     inkscape:deskcolor="#d1d1d1">
    <inkscape:grid
       type="xygrid"
       id="grid4761"
       empspacing="4" />
  </sodipodi:namedview>
  <title
     id="title4162">Adwaita Icon Template</title>
  <defs
     id="defs3">
    <linearGradient
       id="linearGradient1020"
       inkscape:swatch="gradient">
      <stop
         style="stop-color:#ffffff;stop-opacity:1;"
         offset="0"
         id="stop1016" />
      <stop
         style="stop-color:#ffffff;stop-opacity:0.09411765"
         offset="1"
         id="stop1018" />
    </linearGradient>
    <linearGradient
       inkscape:collect="always"
       xlink:href="#linearGradient870"
       id="linearGradient872-3"
       x1="69.432274"
       y1="59.292229"
       x2="69.432274"
       y2="115.19054"
       gradientUnits="userSpaceOnUse"
       gradientTransform="matrix(0.35416957,0,0,0.35416895,9.194903,4.2088146)" />
    <linearGradient
       inkscape:collect="always"
       id="linearGradient870">
      <stop
         style="stop-color:#f9da02;stop-opacity:1;"
         offset="0"
         id="stop866" />
      <stop
         style="stop-color:#dcb102;stop-opacity:1"
         offset="1"
         id="stop868" />
    </linearGradient>
  </defs>
  <metadata
     id="metadata4">
    <rdf:RDF>
      <cc:Work
         rdf:about="">
        <dc:title>Adwaita Icon Template</dc:title>
      </cc:Work>
    </rdf:RDF>
  </metadata>
  <rect
     style="display:inline;opacity:1;fill:#d2d8dc;fill-opacity:1;stroke:#a7b0b7;stroke-width:1.00001;stroke-linecap:butt;stroke-linejoin:miter;stroke-miterlimit:4;stroke-dasharray:none;stroke-dashoffset:0;stroke-opacity:1;marker:none;marker-start:none;marker-mid:none;marker-end:none;paint-order:normal;enable-background:new"
     id="rect929-36-9-9-2"
     height="38.999989"
     x="3.5000057"
     y="4.5000057"
     ry="3"
     rx="3"
     width="40.999989" />
  <rect
     style="display:inline;opacity:1;fill:#263742;fill-opacity:1;stroke:none;stroke-width:0.999999;stroke-linecap:butt;stroke-linejoin:miter;stroke-miterlimit:4;stroke-dasharray:none;stroke-dashoffset:0;stroke-opacity:1;marker:none;marker-start:none;marker-mid:none;marker-end:none;paint-order:normal;enable-background:new"
     id="rect946-0-7-4-0"
     width="34"
     height="31"
     x="7.000001"
     y="8.000001"
     ry="2"
     rx="2" />
  <path
     inkscape:connector-curvature="0"
     d="m 19.000001,22.000001 10e-7,2 H 27 v -2 z"
     style="font-style:normal;font-variant:normal;font-weight:bold;font-stretch:normal;font-size:medium;line-height:1.25;font-family:'Source Code Pro';-inkscape-font-specification:'Source Code Pro, Bold';font-variant-ligatures:normal;font-variant-caps:normal;font-variant-numeric:normal;font-feature-settings:normal;text-align:start;letter-spacing:0px;word-spacing:0px;writing-mode:lr-tb;text-anchor:start;fill:#f1f3f5;fill-opacity:1;stroke:none;stroke-width:0.999998;stroke-dasharray:none"
     id="path974-5" />
  <path
     style="display:inline;opacity:1;fill:#758087;fill-opacity:1;stroke:none;stroke-width:0.999995;stroke-linecap:butt;stroke-linejoin:miter;stroke-miterlimit:4;stroke-dasharray:none;stroke-dashoffset:0;stroke-opacity:1;marker:none;marker-start:none;marker-mid:none;marker-end:none;paint-order:normal;enable-background:new"
     d="m 4.0000007,40.000001 v 0.5 c 0,1.468745 1.1810621,2.5 2.5,2.5 H 41.500001 c 1.343369,0 2.498229,-1.07969 2.499539,-2.5 l 4.61e-4,-0.5 c 0,0.97568 -0.993612,2 -2,2 H 5.9998464 c -1.0012839,0 -1.9560406,-0.73014 -1.9998457,-2 z"
     id="rect929-36-9-9-2-2-3"
     inkscape:connector-curvature="0"
     sodipodi:nodetypes="csssscssc" />
  <path
     style="fill:#f1f3f5;fill-opacity:1;stroke:none;stroke-width:1px;stroke-linecap:butt;stroke-linejoin:miter;stroke-opacity:1"
     d="m 11.000001,12.000001 6,3 v 2 l -6,3 v -2 l 4,-2 -4,-2 v -2"
     id="path992"
     inkscape:connector-curvature="0" />
  <path
     id="path864-2"
     d="m 33.785714,24.499944 -0.94351,2.831732 c -0.10929,0.0413 -0.21857,0.085 -0.32545,0.133572 l -2.66778,-1.333293 -1.71703,1.71701 1.33572,2.670234 a 6.0714795,6.071469 0 0 0 -0.14086,0.323004 l -2.82686,0.943503 v 2.428586 l 2.83172,0.943507 c 0.0413,0.109288 0.085,0.218574 0.13357,0.325432 l -1.33329,2.667802 1.71703,1.717011 2.67021,-1.335721 c 0.10565,0.05098 0.21373,0.09716 0.32302,0.140857 l 0.94351,2.826876 h 2.42857 l 0.94352,-2.831733 c 0.10929,-0.04127 0.21857,-0.085 0.32544,-0.133572 l 2.66779,1.333293 1.71703,-1.717011 -1.33573,-2.670231 c 0.051,-0.105641 0.0972,-0.213715 0.14087,-0.323003 l 2.826848,-0.943507 v -2.428586 l -2.831708,-0.943503 a 6.0593364,6.0593259 0 0 0 -0.13358,-0.325433 l 1.3333,-2.667805 -1.71703,-1.71701 -2.67022,1.335723 a 6.0617649,6.0617544 0 0 0 -0.32301,-0.140858 l -0.94352,-2.826876 z m 1.21429,4.857175 a 3.6428877,3.6428815 0 1 1 0,7.285759 3.6428877,3.6428815 0 0 1 0,-7.285759 z"
     style="display:inline;fill:url(#linearGradient872-3);fill-opacity:1;stroke:#ad7702;stroke-width:0.999888;stroke-miterlimit:4;stroke-dasharray:none;stroke-opacity:1;enable-background:new"
     inkscape:connector-curvature="0" />
</svg>
